<?xml version="1.0" standalone="no"?>
<!DOCTYPE svg PUBLIC "-//W3C//DTD SVG 20010904//EN"
 "http://www.w3.org/TR/2001/REC-SVG-20010904/DTD/svg10.dtd">
<svg version="1.0" xmlns="http://www.w3.org/2000/svg"
 width="330.000000pt" height="330.000000pt" viewBox="0 0 330.000000 330.000000"
 preserveAspectRatio="xMidYMid meet">
<metadata>
Created by potrace 1.14, written by Peter Selinger 2001-2017
</metadata>
<g transform="translate(0.000000,330.000000) scale(0.100000,-0.100000)"
fill="#000000" stroke="none">
<path d="M1467 3224 c-4 -4 -7 -27 -7 -50 l0 -43 -147 -3 -148 -3 -3 -27 c-3
-22 -9 -28 -28 -28 -22 0 -24 -4 -24 -50 0 -47 -2 -50 -25 -50 l-25 0 0 -165
0 -164 -97 -3 c-92 -3 -98 -4 -101 -25 -3 -21 -9 -22 -95 -25 l-92 -3 -3 -52
-3 -53 -50 0 c-48 0 -49 -1 -49 -30 0 -25 -4 -30 -25 -30 -24 0 -25 -3 -25
-55 0 -52 1 -55 25 -55 20 0 25 -5 25 -25 0 -24 -2 -25 -74 -25 l-75 0 -3 -52
c-3 -49 -5 -53 -30 -56 l-28 -3 0 -100 0 -99 30 0 c29 0 30 -1 30 -50 l0 -50
75 0 75 0 0 -75 0 -75 145 0 145 0 0 -23 c0 -18 -5 -23 -22 -23 -21 1 -23 -4
-23 -49 0 -44 3 -50 23 -53 19 -3 22 -9 22 -53 0 -46 -2 -49 -25 -49 -26 0
-26 -1 -23 -72 3 -67 5 -73 26 -76 14 -2 22 -10 22 -22 0 -15 -9 -19 -47 -22
-44 -3 -48 -5 -51 -31 l-3 -27 -94 0 c-89 0 -94 -1 -97 -22 -3 -21 -9 -23 -75
-26 l-73 -3 0 -44 0 -44 -68 -3 -67 -3 -3 -52 -3 -53 -49 0 -49 0 -3 -48 c-3
-43 -5 -47 -30 -50 -22 -3 -28 -9 -28 -28 0 -19 -5 -24 -25 -24 l-25 0 0 -100
0 -100 250 0 250 0 0 -50 0 -50 120 0 120 0 0 -50 0 -50 80 0 80 0 0 50 0 50
70 0 71 0 -3 -152 c-3 -150 -3 -153 -25 -156 -22 -3 -23 -8 -23 -78 l0 -74
165 0 165 0 0 160 c0 153 1 160 20 160 16 0 20 -7 20 -30 l0 -31 98 3 97 3 3
47 3 48 100 0 99 0 0 50 0 50 100 0 100 0 0 50 0 50 55 0 55 0 0 125 0 125
-55 0 -55 0 0 50 0 50 50 0 c47 0 50 -2 50 -25 0 -25 1 -25 80 -25 l80 0 0 50
0 50 155 0 155 0 0 130 0 130 125 0 c117 0 125 1 125 19 0 13 8 21 23 23 21 3
22 7 22 103 0 93 -1 100 -20 100 -17 0 -20 7 -20 50 l0 50 48 3 47 3 0 45 c0
40 2 44 25 44 24 0 25 2 25 75 l0 75 80 0 81 0 -3 153 -3 152 -27 3 c-22 3
-28 9 -28 28 0 22 -4 24 -50 24 l-50 0 0 85 c0 84 0 85 -25 85 -20 0 -25 5
-25 25 0 25 0 25 -99 25 -89 0 -99 2 -104 19 -6 25 0 31 30 31 l24 0 -3 133
c-3 128 -4 132 -25 135 -22 3 -23 7 -25 160 l-3 157 -97 3 -97 3 -3 77 -3 77
-102 3 -103 3 0 -26 c0 -20 -5 -25 -25 -25 -20 0 -25 5 -25 25 0 25 -1 25 -80
25 l-80 0 0 -49 0 -50 -47 -3 c-41 -3 -48 -6 -53 -28 -4 -16 -14 -26 -27 -28
-14 -2 -23 -12 -25 -25 -2 -14 -11 -23 -25 -25 -19 -3 -23 1 -23 22 0 21 -5
26 -25 26 -23 0 -24 3 -27 78 l-3 77 -201 3 c-110 1 -203 -1 -207 -4z m205
-126 c2 -17 11 -24 31 -26 21 -3 27 -8 27 -28 0 -20 4 -25 23 -22 18 2 23 -2
25 -24 2 -20 9 -28 23 -28 14 0 19 -7 19 -30 0 -25 4 -30 25 -30 25 0 25 -1
25 -85 0 -78 -2 -85 -20 -85 -15 0 -20 -7 -20 -24 0 -19 -6 -25 -27 -28 -20
-2 -29 -9 -31 -25 -3 -17 -10 -23 -28 -23 -22 0 -24 3 -24 55 0 51 -2 55 -23
55 -18 0 -23 5 -22 28 0 22 -5 28 -27 30 l-28 3 0 -71 c0 -64 -2 -72 -22 -80
-22 -8 -21 -11 5 -14 6 0 13 -16 15 -33 3 -30 1 -33 -22 -33 -24 0 -26 -3 -26
-50 l0 -50 -50 0 c-47 0 -50 2 -50 25 0 23 -3 25 -50 25 -46 0 -50 2 -50 24 0
18 -6 25 -22 28 -19 2 -25 12 -32 56 -8 45 -12 52 -32 52 -23 0 -24 2 -24 85
0 83 0 85 24 85 19 0 25 6 28 28 2 19 9 28 25 30 14 2 23 11 25 25 2 16 11 23
31 25 21 3 27 9 27 28 0 19 5 24 25 24 20 0 25 5 25 25 0 22 4 25 38 25 73 0
112 11 112 31 0 29 48 26 52 -3z m608 -3 c0 -21 5 -25 30 -25 25 0 30 4 30 25
0 23 4 25 44 25 39 0 45 -3 48 -22 3 -20 10 -23 55 -26 l51 -3 7 -49 c6 -45
10 -50 32 -50 19 0 23 4 18 19 -4 13 0 20 15 24 24 6 26 4 35 -50 5 -33 11
-43 26 -43 18 0 19 -9 19 -140 l0 -140 -25 0 c-20 0 -25 -5 -25 -25 0 -20 -5
-25 -25 -25 -21 0 -25 -5 -25 -30 0 -25 -4 -30 -24 -30 -18 0 -26 6 -28 22 -3
19 -9 23 -45 23 -40 0 -43 -2 -43 -27 0 -16 5 -28 10 -28 6 0 10 9 10 21 0 15
4 19 16 15 9 -3 21 -6 27 -7 7 0 2 -4 -10 -9 -16 -6 -23 -18 -23 -35 0 -20 -5
-25 -25 -25 -20 0 -25 -5 -25 -25 0 -20 -5 -25 -26 -25 -24 0 -24 1 -10 22 24
34 20 48 -16 49 -31 1 -32 1 -8 9 23 7 23 8 -10 10 -19 1 -42 3 -50 4 -8 0
-15 8 -15 16 0 8 8 14 18 14 9 -1 17 5 17 13 0 9 -8 13 -22 11 -18 -2 -24 2
-26 23 -2 21 -10 28 -33 31 -30 5 -48 -5 -29 -17 17 -10 11 -25 -10 -25 -15 0
-20 7 -20 25 0 20 -5 25 -25 25 -20 0 -25 5 -25 24 0 16 -7 27 -20 31 -32 10
-50 -12 -50 -61 0 -37 -3 -44 -20 -44 -15 0 -20 7 -20 25 0 20 -5 25 -25 25
l-24 0 1 136 c1 117 3 134 15 119 7 -11 14 -30 15 -44 0 -14 4 -6 7 19 5 39 9
45 31 45 20 0 26 6 28 28 3 25 6 27 52 27 46 0 49 2 52 28 2 21 8 27 26 25 16
-2 22 3 22 16 0 16 -6 18 -45 13 -30 -3 -45 -1 -45 7 0 7 19 11 50 11 47 0 50
2 50 25 0 18 5 25 20 25 15 0 20 -7 20 -25z m-510 -35 c0 -5 -4 -10 -10 -10
-5 0 -10 5 -10 10 0 6 5 10 10 10 6 0 10 -4 10 -10z m490 -470 c0 -5 -2 -10
-4 -10 -3 0 -8 5 -11 10 -3 6 -1 10 4 10 6 0 11 -4 11 -10z m10 -35 c10 -12
10 -15 -4 -15 -9 0 -16 7 -16 15 0 8 2 15 4 15 2 0 9 -7 16 -15z m-1148 -71
c31 -5 37 -11 40 -33 2 -18 10 -27 25 -29 18 -3 23 -12 29 -58 l6 -54 97 0
c61 0 91 -4 82 -9 -11 -7 -12 -13 -4 -23 9 -10 6 -13 -13 -13 -14 0 -22 5 -20
12 6 14 -32 25 -40 11 -3 -5 -6 -25 -7 -44 -1 -29 -4 -34 -21 -32 -16 2 -22
-4 -26 -27 -5 -30 -5 -30 -83 -33 -74 -3 -77 -4 -77 -27 0 -25 0 -25 100 -25
l100 0 0 -25 c0 -24 9 -30 38 -26 6 1 12 -7 12 -18 0 -16 -9 -21 -45 -27 -39
-5 -45 -10 -45 -30 0 -22 -4 -24 -55 -24 -48 0 -55 -3 -55 -19 0 -18 -11 -19
-217 -23 -251 -4 -263 -3 -263 23 0 13 -7 19 -24 19 -19 0 -25 6 -28 28 -2 21
-9 28 -30 30 -19 2 -27 9 -26 20 1 9 0 32 0 50 -2 27 -6 32 -27 32 -37 0 -35
38 3 42 20 2 27 8 26 25 0 18 7 23 48 28 42 6 48 10 48 31 0 24 1 24 94 24
l94 0 7 105 c6 94 9 105 26 105 12 0 19 -7 19 -20 0 -16 7 -20 30 -20 25 0 30
4 30 24 0 20 6 25 33 29 56 7 81 7 119 1z m1568 -149 c0 -24 3 -25 55 -25 52
0 55 -1 55 -26 0 -23 3 -25 33 -22 27 2 31 7 29 26 -2 14 2 22 11 22 10 0 17
-16 22 -49 5 -41 11 -50 28 -53 19 -3 22 -10 25 -55 3 -49 5 -53 28 -53 22 0
24 -4 24 -44 0 -39 -3 -45 -22 -48 -19 -2 -25 -12 -32 -50 -6 -38 -12 -48 -28
-48 -11 0 -22 -8 -25 -20 -6 -24 -10 -25 -30 -4 -14 13 -35 15 -127 11 -124
-5 -186 7 -186 35 0 16 10 18 70 18 68 0 70 1 70 25 0 23 -3 25 -50 25 -47 0
-50 2 -50 25 0 20 -5 25 -25 25 -23 0 -25 3 -25 49 0 48 0 48 -38 54 -20 4
-54 4 -75 0 -36 -5 -37 -5 -37 26 0 31 0 32 48 29 26 -1 82 -1 125 0 75 2 77
3 77 27 0 23 -4 25 -44 25 -39 0 -44 3 -48 25 -5 22 -2 25 23 25 24 0 29 4 29
25 0 23 4 25 45 25 41 0 45 -2 45 -25z m-710 -230 c0 -51 -2 -55 -24 -55 -21
0 -25 -6 -31 -50 -5 -39 -11 -50 -25 -50 -15 0 -20 11 -25 54 -9 66 -1 94 28
98 16 2 23 11 25 31 3 21 9 27 28 27 22 0 24 -3 24 -55z m-610 -280 c0 -20 5
-25 25 -25 20 0 25 -5 25 -25 0 -20 -5 -25 -25 -25 -23 0 -25 -3 -25 -50 0
-47 -2 -50 -25 -50 -23 0 -25 -4 -25 -45 0 -38 3 -45 19 -45 13 0 21 8 23 23
3 21 8 22 106 25 l102 3 0 -156 0 -155 -50 0 c-46 0 -50 -2 -50 -23 0 -13 -3
-27 -7 -31 -5 -4 -8 -13 -8 -19 0 -7 -15 -13 -32 -15 -19 -2 -33 1 -33 7 0 6
7 11 16 11 8 0 12 5 9 10 -3 6 -26 10 -51 10 -40 0 -44 -2 -44 -25 0 -26 0
-26 -77 -23 -72 3 -78 5 -81 26 -3 16 -10 22 -28 22 -22 0 -24 4 -24 50 l0 50
-70 0 -70 0 0 30 c0 25 -4 30 -25 30 l-25 0 0 144 0 143 38 7 c20 3 63 6 95 6
50 0 57 2 57 20 0 15 7 20 25 20 21 0 25 5 26 33 1 17 1 40 0 50 -2 15 9 17
103 17 l106 0 0 -25z m1110 -15 c0 -31 -3 -38 -15 -34 -9 4 -15 19 -15 40 0
24 5 34 15 34 11 0 15 -11 15 -40z m410 10 c0 -5 -7 -10 -16 -10 -8 0 -12 5
-9 10 3 6 10 10 16 10 5 0 9 -4 9 -10z m-620 -29 c0 -6 -4 -13 -10 -16 -5 -3
-10 1 -10 9 0 9 5 16 10 16 6 0 10 -4 10 -9z m243 -37 c72 -7 77 -8 77 -30 0
-19 5 -24 24 -24 23 0 25 -5 28 -47 3 -42 6 -49 28 -53 17 -3 25 -12 25 -25 0
-13 8 -21 23 -23 16 -3 22 -10 22 -28 0 -22 -4 -24 -50 -24 l-50 0 0 -45 0
-44 -50 -7 c-44 -6 -50 -9 -50 -30 0 -17 -6 -24 -19 -24 -13 0 -21 -8 -23 -22
-2 -17 -11 -24 -30 -26 -22 -3 -28 -9 -28 -28 0 -22 -4 -24 -50 -24 -47 0 -50
-2 -50 -25 0 -20 -5 -25 -25 -25 -20 0 -25 -5 -25 -25 0 -21 -5 -25 -30 -25
-25 0 -30 4 -30 25 0 20 -5 25 -25 25 -23 0 -25 -4 -25 -45 0 -41 -2 -45 -25
-45 -25 0 -25 0 -19 70 l7 70 -32 0 c-26 0 -31 -4 -31 -25 0 -20 -5 -25 -25
-25 -20 0 -25 -5 -25 -26 0 -24 -2 -25 -52 -22 l-53 3 -3 48 c-3 42 -5 47 -28
47 -17 0 -24 -5 -24 -20 0 -13 -7 -20 -20 -20 -16 0 -21 9 -26 50 -5 39 -10
50 -25 50 -14 0 -19 9 -21 48 -3 40 -6 47 -25 50 -33 5 -31 42 2 42 23 0 25 3
25 50 0 47 2 50 25 50 20 0 25 5 25 24 0 18 6 25 23 28 14 2 23 11 25 26 2 14
10 22 23 22 16 0 19 -7 19 -45 l0 -45 68 0 c110 0 142 -8 142 -36 0 -19 5 -24
24 -24 21 0 24 6 30 50 6 44 9 50 31 50 18 0 24 6 27 28 2 15 9 27 18 28 8 1
27 2 43 2 26 2 27 4 27 52 l0 50 53 0 c30 0 88 -3 130 -6z m-1480 -11 c-13 -2
-33 -2 -45 0 -13 2 -3 4 22 4 25 0 35 -2 23 -4z m1172 -2 c3 -5 1 -12 -5 -16
-5 -3 -10 1 -10 9 0 18 6 21 15 7z m-695 -71 c0 -20 -5 -30 -15 -30 -10 0 -15
10 -15 30 0 20 5 30 15 30 10 0 15 -10 15 -30z m510 -44 c0 -13 6 -26 13 -29
8 -3 6 -7 -6 -12 -22 -9 -33 1 -42 38 -6 23 -4 27 14 27 16 0 21 -6 21 -24z
m-1100 -401 c0 -20 -5 -25 -25 -25 -20 0 -25 5 -25 25 0 20 5 25 25 25 20 0
25 -5 25 -25z m702 -110 c0 -47 1 -91 2 -97 1 -7 -11 -14 -26 -16 -28 -3 -28
-4 -28 -78 0 -72 -1 -74 -25 -74 -20 0 -25 -5 -25 -25 0 -20 -5 -25 -25 -25
-22 0 -25 4 -25 38 0 73 11 112 31 112 14 0 19 7 19 25 0 20 5 25 25 25 26 0
28 9 29 178 0 16 6 22 23 22 22 0 23 -4 25 -85z m-702 10 c0 -23 3 -25 50 -25
47 0 50 -2 50 -25 0 -18 5 -25 20 -25 18 0 20 -7 20 -75 0 -73 1 -75 24 -75
18 0 25 -6 28 -22 2 -15 11 -24 26 -26 19 -3 22 -9 22 -53 0 -46 -2 -49 -25
-49 -20 0 -25 5 -25 25 0 20 -5 25 -25 25 -20 0 -25 -5 -25 -25 0 -23 -4 -25
-45 -25 -41 0 -45 2 -45 25 0 23 -3 25 -50 25 -47 0 -50 2 -50 25 l0 25 -275
0 -275 0 0 -25 c0 -18 -5 -25 -20 -25 -15 0 -20 -7 -20 -25 0 -24 -2 -25 -75
-25 -73 0 -75 1 -75 25 0 20 5 25 25 25 20 0 25 5 25 25 0 20 5 25 25 25 20 0
25 5 25 25 0 20 5 25 25 25 20 0 25 5 25 25 0 23 4 25 45 25 41 0 45 2 45 25
0 20 5 25 25 25 20 0 25 5 25 25 0 24 2 25 75 25 73 0 75 1 75 25 0 24 3 25
55 25 52 0 55 1 55 25 l0 25 120 0 120 0 0 -25z m750 -145 c0 -13 -7 -20 -20
-20 -13 0 -20 7 -20 20 0 13 7 20 20 20 13 0 20 -7 20 -20z m250 -105 c0 -20
5 -25 24 -25 18 0 25 -6 28 -22 2 -17 11 -24 31 -26 21 -3 27 -9 27 -28 0 -19
-5 -24 -25 -24 -20 0 -25 -5 -25 -25 0 -20 -5 -25 -25 -25 -20 0 -25 5 -25 25
0 23 -3 25 -50 25 -47 0 -50 2 -50 25 0 20 -5 25 -25 25 -20 0 -25 5 -25 25 0
23 3 25 50 25 47 0 50 2 50 25 0 18 5 25 20 25 15 0 20 -7 20 -25z m-250 -200
l0 -25 105 0 105 0 0 26 c0 21 4 25 23 22 14 -2 23 -11 25 -25 2 -15 10 -23
23 -23 14 0 19 -7 19 -25 0 -24 -2 -25 -69 -25 l-69 0 -7 -50 -7 -50 -44 0
c-40 0 -44 2 -44 25 0 20 -5 25 -24 25 -18 0 -25 6 -28 23 -3 19 -11 23 -53
27 -42 4 -50 8 -53 28 -3 16 -10 22 -28 22 -17 0 -24 6 -24 18 0 29 8 32 82
32 66 0 68 -1 68 -25z"/>
<path d="M1628 2870 c-3 -16 -3 -30 -2 -30 2 0 10 14 19 30 13 25 13 30 1 30
-8 0 -16 -13 -18 -30z"/>
<path d="M935 1660 c-3 -5 1 -10 9 -10 9 0 16 5 16 10 0 6 -4 10 -9 10 -6 0
-13 -4 -16 -10z"/>
</g>
</svg>
